<svg width="38" height="44" viewBox="0 0 38 44" fill="none" xmlns="http://www.w3.org/2000/svg">
<g clip-path="url(#clip0_86_95)">
<path d="M38 11.037L19.0048 0V7.63712L38 18.6255V11.0355V11.037Z" fill="#94CF64"/>
<path d="M38 18.6256L32.3014 21.9548L19 14.2409L11.4003 18.6318L5.7002 15.5472L19.0032 7.63715L38 18.6256Z" fill="#144637"/>
<path d="M11.4003 18.6318L5.7002 15.5472V21.9548L11.4003 18.6318Z" fill="#44A180"/>
<path d="M0 32.8728L19 21.9548L38 32.8728L19 43.9098L0 32.8728Z" fill="#144637"/>
<path d="M38 25.2951L19 14.1216V21.9548L38 32.8728V25.2951Z" fill="#94CF64"/>
<path d="M5.70015 21.9548V15.5472L19.0031 7.63712V0L0 11.037V32.8728L19 21.9548V14.1216L5.70015 21.9548Z" fill="#6EC48E"/>
</g>
<defs>
<clipPath id="clip0_86_95">
<rect width="38" height="44" fill="white"/>
</clipPath>
</defs>
</svg>
