<svg width="14" height="14" viewBox="0 0 14 14" fill="none" xmlns="http://www.w3.org/2000/svg">
<path d="M0.905413 13.9997H13.1049C13.5876 13.9997 14 13.5546 14 13.0219C14 12.4896 13.5876 12.0547 13.1049 12.0547H0.905413C0.422669 12.0547 0 12.4896 0 13.0219C0 13.5541 0.422669 13.9997 0.905413 13.9997Z" fill="#ECECEC"/>
<path d="M2.77303 7.97234H11.2348C11.5697 7.97234 11.8557 7.52724 11.8557 6.99451C11.8557 6.46224 11.5697 6.02734 11.2348 6.02734H2.77303C2.43819 6.02734 2.14502 6.46224 2.14502 6.99451C2.14502 7.52678 2.43819 7.97234 2.77303 7.97234Z" fill="#ECECEC"/>
<path d="M0.905413 1.945H13.1049C13.5876 1.945 14 1.4999 14 0.967167C14 0.434901 13.5876 0 13.1049 0H0.905413C0.422669 0 0 0.434901 0 0.967167C0 1.49943 0.422669 1.945 0.905413 1.945Z" fill="#ECECEC"/>
</svg>
